<?xml version="1.0" standalone="no"?>
<!DOCTYPE svg PUBLIC "-//W3C//DTD SVG 20010904//EN"
 "http://www.w3.org/TR/2001/REC-SVG-20010904/DTD/svg10.dtd">
<svg version="1.0" xmlns="http://www.w3.org/2000/svg"
 width="800.000000pt" height="800.000000pt" viewBox="0 0 800.000000 800.000000"
 preserveAspectRatio="xMidYMid meet">
<metadata>
Created by potrace 1.11, written by Peter Selinger 2001-2013
</metadata>
<g transform="translate(0.000000,800.000000) scale(0.100000,-0.100000)"
fill="#000000" stroke="none">
<path d="M0 4000 l0 -4000 4000 0 4000 0 0 4000 0 4000 -4000 0 -4000 0 0
-4000z m3690 3376 l0 -313 -107 -12 c-250 -28 -405 -68 -658 -168 -305 -120
-616 -293 -801 -444 l-71 -58 -217 218 -218 218 59 50 c32 27 108 85 168 128
l109 80 -504 3 c-278 1 -511 0 -517 -3 -17 -6 -19 -1025 -3 -1025 6 0 10 4 10
8 0 11 139 201 198 270 l45 54 218 -218 218 -217 -58 -71 c-152 -187 -327
-504 -447 -808 l-58 -148 -373 0 -373 0 0 1385 0 1385 1690 0 1690 0 0 -314z
m4007 -143 c-4 -252 -7 -1015 -7 -1696 l0 -1237 -312 2 -313 3 -8 65 c-22 180
-52 345 -84 449 -110 364 -333 808 -530 1052 -29 36 -53 70 -53 75 0 5 96 105
213 222 l214 214 45 -54 c41 -47 174 -227 205 -274 9 -15 12 94 12 499 1 405
-2 519 -11 522 -7 3 -240 4 -518 3 l-504 -3 109 -80 c60 -43 136 -101 168
-128 l59 -50 -218 -218 -217 -218 -71 58 c-185 151 -496 324 -801 444 -253
100 -408 140 -658 168 l-107 12 0 313 0 314 1697 0 1696 0 -6 -457z m-3697
-3233 l0 -310 -1845 0 -1845 0 0 310 0 310 1845 0 1845 0 0 -310z m3690 -2000
l0 -1690 -1690 0 -1690 0 0 314 0 313 77 7 c43 3 136 16 208 27 361 58 957
328 1261 572 47 37 88 67 92 67 4 0 104 -97 222 -215 l215 -216 -25 -20 c-14
-11 -86 -65 -160 -121 -74 -56 -139 -105 -145 -110 -5 -4 224 -8 508 -8 l517
0 -1 518 0 517 -22 -29 c-70 -94 -199 -265 -216 -286 l-20 -25 -216 215 c-118
118 -215 219 -215 223 0 5 27 42 60 83 135 164 320 499 427 774 111 282 144
412 174 673 l12 107 313 0 314 0 0 -1690z m-6571 918 c113 -287 298 -622 435
-788 l64 -77 -219 -219 -220 -219 -20 25 c-17 21 -146 192 -216 286 l-22 29 0
-513 c-1 -401 2 -514 12 -517 6 -3 238 -4 514 -3 l503 3 -138 103 c-75 56
-150 113 -167 127 l-30 25 215 215 c118 118 218 215 222 215 4 0 45 -30 92
-67 304 -244 900 -514 1261 -572 72 -11 165 -24 208 -27 l77 -7 0 -313 0 -314
-1690 0 -1690 0 0 1385 0 1385 373 0 372 0 64 -162z"/>
</g>
</svg>
